<?xml version="1.0" encoding="UTF-8" standalone="no"?>
<!DOCTYPE svg PUBLIC "-//W3C//DTD SVG 1.1//EN" "http://www.w3.org/Graphics/SVG/1.1/DTD/svg11.dtd">
<svg width="100%" height="100%" viewBox="0 0 1000 331" version="1.1" xmlns="http://www.w3.org/2000/svg" xmlns:xlink="http://www.w3.org/1999/xlink" xml:space="preserve" xmlns:serif="http://www.serif.com/" style="fill-rule:evenodd;clip-rule:evenodd;stroke-linejoin:round;stroke-miterlimit:2;">
    <g transform="matrix(1,0,0,1,0.367202,1.95949)">
        <g transform="matrix(0.969958,0,0,0.992699,13.1186,2.39673)">
            <path d="M1017.01,-4.388L-13.903,-4.388L-13.903,212.563C-13.903,212.563 38.889,247.275 86.647,278.678C131.58,308.222 190.915,305.955 233.349,273.072C245.022,264.026 256.856,254.855 267.755,246.409C296.994,223.751 336.28,217.799 371.169,230.742C420.873,249.181 493.452,276.107 546.227,295.685C588.797,311.477 636.397,307.57 675.674,285.059C689.711,277.014 704.537,268.517 718.32,260.617C753.647,240.37 796.85,238.195 834.119,254.788C838.917,256.924 843.788,259.092 848.641,261.253C890.539,279.907 939.63,273.801 975.408,245.486C997.316,228.148 1017.01,212.563 1017.01,212.563L1017.01,-4.388Z"/>
        </g>
    </g>
</svg>
