<?xml version="1.0" encoding="UTF-8" standalone="no"?>
<!DOCTYPE svg PUBLIC "-//W3C//DTD SVG 1.1//EN" "http://www.w3.org/Graphics/SVG/1.1/DTD/svg11.dtd">
<svg width="100%" height="100%" viewBox="0 0 1573 1655" version="1.1" xmlns="http://www.w3.org/2000/svg" xmlns:xlink="http://www.w3.org/1999/xlink" xml:space="preserve" xmlns:serif="http://www.serif.com/" style="fill-rule:evenodd;clip-rule:evenodd;stroke-linejoin:round;stroke-miterlimit:2;">
    <g transform="matrix(1,0,0,1,-1.23285,-182.765)">
        <g transform="matrix(1,0,0,1,12.5011,3.77419)">
            <path d="M1561.03,275.08C1561.03,275.08 1513.14,199.244 1466.47,212.984C1405.47,230.942 1329.08,338.627 1187.49,327.58C1178.32,326.865 1168.63,325.458 1158.5,323.481C1050.73,302.456 956.502,217.15 849.137,214.684C751.826,212.449 628.885,314.613 514.309,308.686C399.733,302.758 249.275,184.721 161.679,179.12C95.885,174.913 -11.268,275.08 -11.268,275.08L-11.268,1695.23C-11.268,1695.23 116.565,1828.42 200.705,1832.95C288.598,1837.69 413.311,1732.86 516.089,1723.64C617.712,1714.54 715.989,1789.14 817.374,1777.68C933.397,1764.57 1114.23,1649.55 1212.23,1644.98C1285.47,1641.56 1341.69,1739.27 1405.35,1750.27C1494.17,1765.61 1561.03,1695.23 1561.03,1695.23L1561.03,275.08Z"/>
        </g>
    </g>
</svg>
