<?xml version="1.0" standalone="no"?>
<svg viewBox="0 0 200 200" xmlns="http://www.w3.org/2000/svg">
  <path fill="#000000" d="M46.2,-78.4C60.6,-71.7,73.6,-60.8,81.6,-47.1C89.7,-33.3,92.7,-16.7,91.8,-0.5C90.8,15.6,85.9,31.2,78.1,45.2C70.2,59.2,59.4,71.7,45.9,80.3C32.4,88.9,16.2,93.6,0.7,92.4C-14.8,91.2,-29.7,84.1,-42.3,75.1C-55,66,-65.5,55,-73.5,42.1C-81.5,29.3,-87,14.6,-88,-0.6C-89,-15.8,-85.6,-31.6,-78.2,-45.5C-70.8,-59.4,-59.4,-71.3,-45.7,-78.5C-32,-85.7,-16,-88.2,-0.1,-88.1C15.9,-87.9,31.8,-85.2,46.2,-78.4Z" transform="translate(100 100)" />
</svg>
