<?xml version="1.0" encoding="UTF-8" standalone="no"?> <!-- Created with Vectornator for iOS (http://vectornator.io/) --><!DOCTYPE svg PUBLIC "-//W3C//DTD SVG 1.1//EN" "http://www.w3.org/Graphics/SVG/1.1/DTD/svg11.dtd">
<svg height="100%" style="fill-rule:evenodd;clip-rule:evenodd;stroke-linecap:round;stroke-linejoin:round;" xmlns:xlink="http://www.w3.org/1999/xlink" xmlns="http://www.w3.org/2000/svg" xml:space="preserve" width="100%" xmlns:vectornator="http://vectornator.io" version="1.1" viewBox="0 0 3840 2160">
<metadata>
<vectornator:setting key="DisplayWhiteBackground" value="0"/>
<vectornator:setting key="RulersVisible" value="1"/>
<vectornator:setting key="GridSpacing" value="36"/>
<vectornator:setting key="Units" value="Pixels"/>
<vectornator:setting key="New" value="1"/>
<vectornator:setting key="DynamicGuides" value="0"/>
<vectornator:setting key="SnapToPoints" value="0"/>
<vectornator:setting key="CMYKEnabledKey" value="0"/>
<vectornator:setting key="SnapToGrid" value="0"/>
<vectornator:setting key="SnapToGuides" value="1"/>
<vectornator:setting key="SnapToEdges" value="0"/>
</metadata>
<defs/>
<g id="Layer 1" vectornator:layerName="Layer 1">
<path stroke="#000000" stroke-width="1" d="M-53.7077+1904.6C-53.7077+1904.6-752.2+1634.41+205.872+1817.83C419.95+1858.82+689.772+1712.41+1039.04+1729.21C1212.18+1737.54+1436.94+1919.15+1620.44+1879.33C1967.68+1803.99+2415.59+1654.78+2764.21+1804.4C3277.01+2024.47+3848.18+1904.6+3848.18+1904.6C3849.84+1904.6+3851.17+1905.94+3851.17+1907.59L3851.17+2169.69C3851.17+2171.35+3849.84+2172.68+3848.18+2172.68L-53.7077+2172.68C-55.3591+2172.68-56.6977+2171.35-56.6977+2169.69L-56.6977+1907.59C-56.6977+1905.94-55.3591+1904.6-53.7077+1904.6Z" fill="#000000" stroke-linecap="butt" opacity="1" stroke-linejoin="round"/>
<g opacity="1">
<path d="M226.317+1921.37L236.876+1908.14L227.091+1908.14L227.091+1906.09L239.876+1906.09L239.876+1908.09L229.259+1921.25L239.876+1921.25L239.876+1923.3L226.317+1923.3L226.317+1921.37Z" opacity="1" fill="#000000"/>
</g>
</g>
</svg>
