<?xml version="1.0" encoding="UTF-8" standalone="no"?>
<!DOCTYPE svg PUBLIC "-//W3C//DTD SVG 1.1//EN" "http://www.w3.org/Graphics/SVG/1.1/DTD/svg11.dtd">
<svg width="100%" height="100%" viewBox="0 0 724 655" version="1.1" xmlns="http://www.w3.org/2000/svg" xmlns:xlink="http://www.w3.org/1999/xlink" xml:space="preserve" xmlns:serif="http://www.serif.com/" style="fill-rule:evenodd;clip-rule:evenodd;stroke-linejoin:round;stroke-miterlimit:2;">
    <g transform="matrix(1,0,0,1,-367.048,-633.145)">
        <g transform="matrix(0.86338,-0.629961,0.629961,0.86338,-450.816,577.737)">
            <path d="M737.649,635.846C769.655,647.204 829.132,749.383 876.274,780.091C918.077,807.322 1015.27,770.481 1020.5,820.096C1027.62,887.667 960.501,1111.63 919.019,1185.52C891.811,1233.98 825.746,1254.46 771.605,1263.43C717.464,1272.4 648.66,1263.71 594.171,1239.35C534.782,1212.79 445.32,1159.12 415.267,1104.11C385.215,1049.1 409.601,956.69 413.857,909.289C416.645,878.23 437.133,847.551 440.802,819.702C444.184,794.037 429.05,767.169 435.873,742.197C443.825,713.094 454.168,650.786 488.513,645.078C522.857,639.37 600.418,709.488 641.941,707.95C681.857,706.471 710.933,626.366 737.649,635.846Z" style="fill:white;"/>
        </g>
    </g>
</svg>
