<?xml version="1.0" encoding="UTF-8" standalone="no"?>
<!DOCTYPE svg PUBLIC "-//W3C//DTD SVG 1.1//EN" "http://www.w3.org/Graphics/SVG/1.1/DTD/svg11.dtd">
<svg width="100%" height="100%" viewBox="0 0 1064 1108" version="1.1" xmlns="http://www.w3.org/2000/svg" xmlns:xlink="http://www.w3.org/1999/xlink" xml:space="preserve" xmlns:serif="http://www.serif.com/" style="fill-rule:evenodd;clip-rule:evenodd;stroke-linejoin:round;stroke-miterlimit:2;">
    <g transform="matrix(1,0,0,1,-224.295,-229.288)">
        <g transform="matrix(1,0,0,1,102.155,190.878)">
            <path d="M878.745,143.19C982.831,143.19 853.573,360.016 903.332,430.793C953.09,501.57 1140.22,509.064 1177.3,567.851C1214.38,626.638 1114.84,716.947 1125.8,783.515C1136.77,850.084 1183.88,914.528 1155.54,946.253C1127.2,977.978 1043.22,944.073 955.769,973.867C868.317,1003.66 798.208,1142.39 718.377,1146.02C638.546,1149.65 555.897,1028.7 476.783,995.641C403.59,965.056 302.737,979.998 243.69,947.668C188.212,917.291 116.403,855.236 122.503,801.659C128.603,748.081 271.073,693.91 280.291,626.202C289.509,558.494 164.75,478.698 177.81,395.41C183.332,360.196 291.452,351.38 304.433,291.972C321.758,212.676 246.901,82.009 277.964,51.95C343.943,-11.896 495.834,169.06 619.187,200.261C698.214,220.251 831.908,143.19 878.745,143.19Z"/>
        </g>
    </g>
</svg>
