<?xml version="1.0" encoding="UTF-8" standalone="no"?>
<!DOCTYPE svg PUBLIC "-//W3C//DTD SVG 1.1//EN" "http://www.w3.org/Graphics/SVG/1.1/DTD/svg11.dtd">
<svg width="100%" height="100%" viewBox="0 0 1466 1294" version="1.1" xmlns="http://www.w3.org/2000/svg" xmlns:xlink="http://www.w3.org/1999/xlink" xml:space="preserve" xmlns:serif="http://www.serif.com/" style="fill-rule:evenodd;clip-rule:evenodd;stroke-linejoin:round;stroke-miterlimit:2;">
    <g transform="matrix(1,0,0,1,-322.008,-133.158)">
        <g transform="matrix(1.1017,0,0,1,149.417,92.7608)">
            <path d="M534.411,103.024C570.782,108.013 679.508,256.773 741.325,235.183C833.497,202.991 886.052,-0.41 959.9,47.731C1000.09,73.93 999.283,254.197 1091.91,288.598C1219.09,335.834 1443.82,241.081 1476.95,306.278C1542.99,436.277 1266.99,757.84 1266.99,839.4C1266.99,923.654 1246.55,1081.65 1206.14,1174.72C1164.67,1270.23 1025.31,1122.02 941.492,1137.38C870.727,1150.35 858.534,1333.56 785.543,1333.56C642.281,1333.56 619.562,1149.71 453.197,1044.34C336.561,970.476 222.624,958.393 182.79,866.191C87.655,645.982 275.651,699.321 373.006,551.361C478.566,390.929 389.297,83.116 534.411,103.024Z"/>
        </g>
    </g>
</svg>
